<svg width="25" height="23" viewBox="0 0 25 23" fill="none" xmlns="http://www.w3.org/2000/svg">
<path id="Vector" fill-rule="evenodd" clip-rule="evenodd" d="M23.0728 13.7284C21.2905 17.1501 16.7378 20.6006 12.9228 22.8829C12.7946 22.9596 12.6486 23 12.4998 23C12.351 23 12.205 22.9596 12.0767 22.8829C8.26423 20.6023 3.71576 17.1552 1.93425 13.7428C-0.758445 8.91023 -0.58405 4.07847 2.11032 1.66217C2.86726 1.03536 3.74048 0.569787 4.67801 0.293168C5.61555 0.0165496 6.59824 -0.0654646 7.56759 0.0520072C8.53694 0.169479 9.47314 0.484035 10.3205 0.976955C11.1678 1.46987 11.9089 2.13108 12.4998 2.92122C13.0906 2.13108 13.8318 1.46987 14.6791 0.976955C15.5264 0.484035 16.4626 0.169479 17.432 0.0520072C18.4013 -0.0654646 19.384 0.0165496 20.3216 0.293168C21.2591 0.569787 22.1323 1.03536 22.8893 1.66217C25.582 4.07762 25.758 8.90514 23.0728 13.7284Z" fill="#FA4A23"/>
</svg>
