<svg width="21" height="15" viewBox="0 0 21 15" fill="none" xmlns="http://www.w3.org/2000/svg">
<g id="Group">
<path id="Vector" d="M10.0002 9.175C10.3502 9.175 10.6752 9.05 10.9252 8.8L19.6252 0.0999999C19.4752 0.0499999 19.3002 0 19.1252 0H1.3752C1.1252 0 0.900195 0.0750002 0.700195 0.175L9.0752 8.775C9.3252 9.025 9.6502 9.175 10.0002 9.175Z" fill="#242424"/>
<path id="Vector_2" d="M1.375 15H19.125C19.875 15 20.5 14.375 20.5 13.625V1.375C20.5 1.15 20.45 0.95 20.35 0.75L11.625 9.5C11.2 9.925 10.6 10.175 10 10.175C9.4 10.175 8.8 9.925 8.375 9.5L0.075 0.95C0.025 1.1 0 1.225 0 1.375V13.625C0 14.375 0.625 15 1.375 15ZM13.575 8.975C13.75 8.775 14.075 8.75 14.275 8.925L18.5 12.625C18.7 12.8 18.725 13.125 18.55 13.325C18.45 13.425 18.325 13.5 18.175 13.5C18.05 13.5 17.95 13.45 17.85 13.375L13.625 9.675C13.425 9.5 13.4 9.175 13.575 8.975ZM1.5 12.625L5.65 8.975C5.85 8.8 6.175 8.825 6.35 9.025C6.525 9.225 6.5 9.55 6.3 9.725L2.175 13.375C2.075 13.45 1.95 13.5 1.85 13.5C1.7 13.5 1.575 13.45 1.475 13.325C1.275 13.125 1.3 12.8 1.5 12.625Z" fill="#242424"/>
</g>
</svg>
