<svg width="70" height="64" viewBox="0 0 70 64" fill="none" xmlns="http://www.w3.org/2000/svg">
<path d="M35 0C33.3 0 32 1.3 32 3V13.4C27.4 14.7 24 18.9 24 24C24 29.1 27.4 33.3 32 34.6V61C32 62.7 33.3 64 35 64C36.7 64 38 62.7 38 61V34.6C42.6 33.3 46 29.1 46 24C46 18.9 42.6 14.7 38 13.4V3C38 1.3 36.7 0 35 0ZM40 24C40 26.8 37.8 29 35 29C32.2 29 30 26.8 30 24C30 21.2 32.2 19 35 19C37.8 19 40 21.2 40 24Z" fill="#242424"/>
<path d="M70 40C70 35 66.6 30.7 62 29.4V3C62 1.3 60.7 0 59 0C57.3 0 56 1.3 56 3V29.4C51.4 30.7 48 34.9 48 40C48 45.1 51.4 49.3 56 50.6V61C56 62.7 57.3 64 59 64C60.7 64 62 62.7 62 61V50.6C66.6 49.3 70 45 70 40ZM59 45C56.2 45 54 42.8 54 40C54 37.2 56.2 35 59 35C61.8 35 64 37.2 64 40C64 42.8 61.8 45 59 45Z" fill="#242424"/>
<path d="M8 50.6V61C8 62.7 9.3 64 11 64C12.7 64 14 62.7 14 61V50.6C18.6 49.3 22 45.1 22 40C22 34.9 18.6 30.7 14 29.4V3C14 1.3 12.7 0 11 0C9.3 0 8 1.3 8 3V29.4C3.4 30.7 0 34.9 0 40C0 45.1 3.4 49.3 8 50.6ZM11 35C13.8 35 16 37.2 16 40C16 42.8 13.8 45 11 45C8.2 45 6 42.8 6 40C6 37.2 8.2 35 11 35Z" fill="#242424"/>
</svg>
