<svg width="66" height="66" viewBox="0 0 66 66" fill="none" xmlns="http://www.w3.org/2000/svg">
<path d="M23.8341 18.4059C24.9077 18.4059 25.9571 18.7243 26.8498 19.3207C27.7425 19.9172 28.4382 20.7649 28.849 21.7568C29.2599 22.7487 29.3674 23.8401 29.1579 24.8931C28.9485 25.946 28.4315 26.9132 27.6724 27.6724C26.9132 28.4315 25.946 28.9485 24.8931 29.1579C23.8401 29.3674 22.7487 29.2599 21.7568 28.849C20.7649 28.4382 19.9172 27.7425 19.3207 26.8498C18.7243 25.9571 18.4059 24.9077 18.4059 23.8341C18.4077 22.395 18.9802 21.0154 19.9978 19.9978C21.0154 18.9802 22.395 18.4077 23.8341 18.4059ZM29.0265 33.4445C26.7169 34.6929 24.0351 35.0683 21.4715 34.5021C18.9079 33.9359 16.6337 32.4658 15.0648 30.3607C13.4959 28.2556 12.7371 25.6561 12.9272 23.0376C13.1173 20.4191 14.2435 17.9564 16.1 16.1C17.9564 14.2435 20.4191 13.1173 23.0376 12.9272C25.6561 12.7371 28.2556 13.4959 30.3607 15.0648C32.4658 16.6337 33.9359 18.9079 34.5021 21.4715C35.0683 24.0351 34.6929 26.7169 33.4445 29.0265C34.4485 28.5095 35.5733 28.2728 36.7005 28.3416C37.8277 28.4103 38.9155 28.7819 39.8492 29.4171C40.1221 27.9792 40.8885 26.6817 42.016 25.7485C43.1434 24.8153 44.5613 24.3049 46.0249 24.3055H47.6682V22.2851C47.6654 21.6413 47.4366 21.019 47.0218 20.5266C46.607 20.0343 46.0325 19.7032 45.3986 19.5912L41.8292 18.9649C41.4102 17.4093 40.7898 15.915 39.9839 14.52L42.0649 11.55C42.4218 11.0251 42.586 10.3927 42.5295 9.76048C42.4731 9.12821 42.1994 8.53499 41.7551 8.08163L39.6135 5.90633C39.1563 5.45115 38.5535 5.17136 37.9108 5.11595C37.268 5.06054 36.6263 5.23305 36.098 5.60326L33.128 7.68429C31.7331 6.87813 30.2388 6.25777 28.6831 5.83898L28.0567 2.26959C27.9447 1.63564 27.6136 1.06114 27.1213 0.646349C26.629 0.231556 26.0066 0.00280152 25.3629 0H22.3322C21.6885 0.00280152 21.0661 0.231556 20.5738 0.646349C20.0815 1.06114 19.7504 1.63564 19.6384 2.26959L19.012 5.83898C17.4563 6.2577 15.962 6.87806 14.5671 7.68429L11.5702 5.60326C11.0442 5.24017 10.4081 5.07179 9.77139 5.12711C9.13465 5.18242 8.53712 5.45797 8.08163 5.90633L5.90633 8.08163C5.44944 8.53922 5.16857 9.14329 5.11313 9.78755C5.0577 10.4318 5.23126 11.075 5.60326 11.6039L7.68429 14.5739C6.87861 15.969 6.25828 17.4632 5.83898 19.0188L2.26959 19.6451C1.63564 19.7571 1.06114 20.0882 0.646349 20.5805C0.231556 21.0729 0.00280152 21.6952 0 22.339V25.3696C0.00280152 26.0134 0.231556 26.6357 0.646349 27.128C1.06114 27.6204 1.63564 27.9514 2.26959 28.0635L5.83898 28.6898C6.25792 30.2455 6.87827 31.7397 7.68429 33.1347L5.60326 36.0912C5.23126 36.6201 5.0577 37.2633 5.11313 37.9076C5.16857 38.5518 5.44944 39.1559 5.90633 39.6135L8.08163 41.7551C8.53838 42.213 9.14203 42.4951 9.78631 42.5518C10.4306 42.6085 11.0742 42.4361 11.6039 42.0649L14.5739 39.9839C15.9689 40.7897 17.4632 41.41 19.0188 41.8292L19.6451 45.3986C19.7571 46.0325 20.0882 46.607 20.5805 47.0218C21.0729 47.4366 21.6952 47.6654 22.339 47.6682H24.3594V46.0249C24.3588 44.5613 24.8692 43.1434 25.8024 42.016C26.7356 40.8885 28.0331 40.1221 29.471 39.8492C28.8273 38.9205 28.4462 37.8352 28.368 36.708C28.2897 35.5807 28.5172 34.4532 29.0265 33.4445ZM66 46.0249V48.409C65.9933 48.9132 65.8106 49.3992 65.4835 49.7829C65.1563 50.1666 64.7053 50.4239 64.2086 50.5102L61.3935 51.0018C61.0671 52.2438 60.578 53.4372 59.9388 54.551L61.582 56.8947C61.8752 57.3116 62.0116 57.8186 61.9672 58.3263C61.9228 58.834 61.7006 59.3097 61.3396 59.6694L59.6492 61.3598C59.2895 61.7208 58.8138 61.9431 58.3061 61.9874C57.7984 62.0318 57.2914 61.8954 56.8745 61.6022L54.551 59.9388C53.4519 60.574 52.2747 61.063 51.049 61.3935L50.5102 64.2086C50.4239 64.7053 50.1666 65.1563 49.7829 65.4835C49.3992 65.8106 48.9132 65.9933 48.409 66H46.0249C45.5149 66.0012 45.0209 65.822 44.6302 65.4942C44.2396 65.1664 43.9774 64.711 43.89 64.2086L43.3984 61.3935C42.1727 61.063 40.9954 60.574 39.8963 59.9388L37.5527 61.582C37.1358 61.8752 36.6287 62.0116 36.1211 61.9672C35.6134 61.9228 35.1377 61.7006 34.778 61.3396L33.0876 59.6492C32.7266 59.2895 32.5043 58.8138 32.4599 58.3061C32.4156 57.7984 32.552 57.2914 32.8451 56.8745L34.4951 54.551C33.8598 53.452 33.3708 52.2747 33.0404 51.049L30.2253 50.5102C29.7229 50.4228 29.2675 50.1606 28.9397 49.77C28.6118 49.3793 28.4327 48.8853 28.4339 48.3753V46.0249C28.4327 45.5149 28.6118 45.0209 28.9397 44.6302C29.2675 44.2396 29.7229 43.9774 30.2253 43.89L33.0404 43.3984C33.371 42.1727 33.86 40.9955 34.4951 39.8963L32.8518 37.5594C32.5587 37.1425 32.4223 36.6355 32.4667 36.1278C32.511 35.6201 32.7333 35.1444 33.0943 34.7847L34.7847 33.0943C35.1444 32.7333 35.6201 32.511 36.1278 32.4667C36.6355 32.4223 37.1425 32.5587 37.5594 32.8518L39.8963 34.4951C40.9953 33.8598 42.1726 33.3707 43.3984 33.0404L43.89 30.2253C43.9774 29.7229 44.2396 29.2675 44.6302 28.9397C45.0209 28.6118 45.5149 28.4327 46.0249 28.4339H48.409C48.9132 28.4406 49.3992 28.6233 49.7829 28.9504C50.1666 29.2776 50.4239 29.7285 50.5102 30.2253L51.0018 33.0404C52.2438 33.3668 53.4372 33.856 54.551 34.4951L56.888 32.8518C57.3048 32.5587 57.8119 32.4223 58.3196 32.4667C58.8272 32.511 59.3029 32.7333 59.6626 33.0943L61.3531 34.7847C61.714 35.1444 61.9363 35.6201 61.9807 36.1278C62.025 36.6355 61.8886 37.1425 61.5955 37.5594L59.9388 39.8963C60.5741 40.9954 61.0631 42.1727 61.3935 43.3984L64.2086 43.89C64.711 43.9774 65.1664 44.2396 65.4942 44.6302C65.822 45.0209 66.0012 45.5149 66 46.0249ZM53.662 47.2169C53.662 45.9422 53.284 44.6961 52.5758 43.6362C51.8676 42.5763 50.8611 41.7503 49.6834 41.2624C48.5057 40.7746 47.2098 40.647 45.9596 40.8957C44.7093 41.1444 43.5609 41.7582 42.6596 42.6596C41.7582 43.5609 41.1444 44.7093 40.8957 45.9596C40.647 47.2098 40.7746 48.5057 41.2624 49.6834C41.7503 50.8611 42.5763 51.8676 43.6362 52.5758C44.6961 53.284 45.9422 53.662 47.2169 53.662C48.9263 53.662 50.5656 52.983 51.7743 51.7743C52.983 50.5656 53.662 48.9263 53.662 47.2169Z" fill="#242424"/>
</svg>
