<svg width="68" height="50" viewBox="0 0 68 50" fill="none" xmlns="http://www.w3.org/2000/svg">
<path d="M40.9907 1.6947C40.9907 0.741434 40.2492 0 39.296 0H1.6947C0.741433 0 0 0.741434 0 1.6947V28.2804H40.9907V1.6947Z" fill="#242424"/>
<path d="M67.7882 23.9378C67.7882 21.9253 67.1526 19.9128 65.8816 18.3241L55.8193 5.29601C54.972 4.13091 53.595 3.49539 52.1122 3.49539H43.109V29.3396C43.109 29.9751 42.6854 30.3988 42.0498 30.3988H0V38.7664C0 40.3552 1.05919 41.6262 2.54206 42.0499C2.54206 41.7322 2.54206 41.4144 2.54206 41.0966C2.54206 35.4829 7.09657 30.8225 12.8162 30.8225C18.4299 30.8225 23.0903 35.377 23.0903 41.0966C23.0903 41.4144 23.0903 41.8381 23.0903 42.1558H44.9097C44.9097 41.8381 44.8037 41.4144 44.8037 41.0966C44.8037 35.4829 49.3583 30.8225 55.0779 30.8225C60.6916 30.8225 65.352 35.377 65.352 41.0966C65.352 41.4144 65.352 41.8381 65.352 42.1558C66.8349 42.0499 68 40.7789 68 39.1901C68 38.9783 68 38.9783 68 38.9783C67.7882 38.2368 67.7882 34.9533 67.7882 23.9378ZM50.3115 26.9035H49.676C49.0405 26.9035 48.6168 26.4798 48.6168 25.8443C48.6168 25.2088 49.0405 24.7851 49.676 24.7851H50.3115C50.8411 24.7851 51.3707 25.2088 51.3707 25.8443C51.3707 26.4798 50.8411 26.9035 50.3115 26.9035ZM59.6324 23.0904H46.8162C46.1807 23.0904 45.757 22.6667 45.757 22.0312V9.1091C45.757 8.47358 46.1807 8.04991 46.8162 8.04991H50.4174C51.3707 8.04991 52.324 8.47359 52.8536 9.21502L60.2679 18.43C60.9034 19.2773 61.3271 20.3365 61.3271 21.3957C61.3271 22.349 60.5857 23.0904 59.6324 23.0904Z" fill="#242424"/>
<path d="M54.9722 49.3582C59.4765 49.3582 63.1279 45.7068 63.1279 41.2025C63.1279 36.6981 59.4765 33.0467 54.9722 33.0467C50.4679 33.0467 46.8164 36.6981 46.8164 41.2025C46.8164 45.7068 50.4679 49.3582 54.9722 49.3582Z" fill="#242424"/>
<path d="M12.7105 49.3582C17.2148 49.3582 20.8662 45.7068 20.8662 41.2025C20.8662 36.6981 17.2148 33.0467 12.7105 33.0467C8.20615 33.0467 4.55469 36.6981 4.55469 41.2025C4.55469 45.7068 8.20615 49.3582 12.7105 49.3582Z" fill="#242424"/>
</svg>
