<svg width="50" height="39" viewBox="0 0 50 39" fill="none" xmlns="http://www.w3.org/2000/svg">
<path d="M34.668 16.2525C33.8047 17.106 33.3311 18.2427 33.3311 19.4595C33.3311 21.9586 35.3691 23.9908 37.875 23.9908H49.9999V14.9283H37.875C36.6611 14.9283 35.5225 15.399 34.668 16.2525ZM40.7109 19.46C40.7109 20.7227 39.6811 21.7525 38.4184 21.7525C37.1487 21.7525 36.1188 20.7227 36.1188 19.46C36.1188 18.1973 37.1487 17.1674 38.4184 17.1674C39.6811 17.1674 40.7109 18.1973 40.7109 19.46Z" fill="#242424"/>
<path d="M33.26 14.83C32.02 16.06 31.33 17.7 31.33 19.46C31.33 23.06 34.27 25.99 37.88 25.99H50V35.99C50 37.6 48.69 38.91 47.07 38.91H2.92999C1.32001 38.91 0 37.6 0 35.99V2.92999C0 1.32001 1.32001 0 2.92999 0H47.07C48.69 0 50 1.32001 50 2.92999V12.93H37.88C36.13 12.93 34.49 13.61 33.26 14.83Z" fill="#242424"/>
</svg>
