<svg width="146" height="50" viewBox="0 0 146 50" fill="none" xmlns="http://www.w3.org/2000/svg">
<mask id="path-1-inside-1_1_896" fill="white">
<path fill-rule="evenodd" clip-rule="evenodd" d="M5 0C2.23858 0 0 2.23858 0 5V35.5C0 38.2614 2.23857 40.5 5 40.5H68.1026L75.5329 49.5L82.9633 40.5H140.857C143.618 40.5 145.857 38.2614 145.857 35.5V5C145.857 2.23858 143.618 0 140.857 0H5Z"/>
</mask>
<path fill-rule="evenodd" clip-rule="evenodd" d="M5 0C2.23858 0 0 2.23858 0 5V35.5C0 38.2614 2.23857 40.5 5 40.5H68.1026L75.5329 49.5L82.9633 40.5H140.857C143.618 40.5 145.857 38.2614 145.857 35.5V5C145.857 2.23858 143.618 0 140.857 0H5Z" fill="white"/>
<path d="M68.1026 40.5L68.8738 39.8633L68.5738 39.5H68.1026V40.5ZM75.5329 49.5L74.7618 50.1367L75.5329 51.0707L76.3041 50.1367L75.5329 49.5ZM82.9633 40.5V39.5H82.4921L82.1921 39.8633L82.9633 40.5ZM1 5C1 2.79086 2.79086 1 5 1V-1C1.68629 -1 -1 1.68629 -1 5H1ZM1 35.5V5H-1V35.5H1ZM5 39.5C2.79086 39.5 1 37.7091 1 35.5H-1C-1 38.8137 1.68629 41.5 5 41.5V39.5ZM68.1026 39.5H5V41.5H68.1026V39.5ZM76.3041 48.8633L68.8738 39.8633L67.3315 41.1367L74.7618 50.1367L76.3041 48.8633ZM82.1921 39.8633L74.7618 48.8633L76.3041 50.1367L83.7344 41.1367L82.1921 39.8633ZM140.857 39.5H82.9633V41.5H140.857V39.5ZM144.857 35.5C144.857 37.7091 143.066 39.5 140.857 39.5V41.5C144.17 41.5 146.857 38.8137 146.857 35.5H144.857ZM144.857 5V35.5H146.857V5H144.857ZM140.857 1C143.066 1 144.857 2.79086 144.857 5H146.857C146.857 1.68629 144.17 -1 140.857 -1V1ZM5 1H140.857V-1H5V1Z" fill="#D1D1D1" mask="url(#path-1-inside-1_1_896)"/>
</svg>
