<svg width="28" height="28" viewBox="0 0 28 28" fill="none" xmlns="http://www.w3.org/2000/svg">
<path d="M11.4154 22.3792C9.85767 22.3792 8.55937 23.6247 8.55937 25.1896C8.55937 26.7545 9.8251 28 11.4154 28C12.9732 28 14.2715 26.7545 14.2715 25.1896C14.2715 23.6247 12.9732 22.3792 11.4154 22.3792ZM22.0606 22.3792C20.5028 22.3792 19.2045 23.6247 19.2045 25.1896C19.2045 26.7545 20.4702 28 22.0606 28C23.6183 28 24.9166 26.7545 24.9166 25.1896C24.9166 23.6247 23.6509 22.3792 22.0606 22.3792ZM26.4097 15.0978L28 8.64677C28 7.88025 27.351 7.20971 26.5396 7.17761L7.55362 5.51689L6.80722 2.57879C6.70987 2.16356 6.38524 1.81227 5.99585 1.68459L1.80932 0.0877944C1.12765 -0.167721 0.348916 0.151729 0.0892207 0.822262C-0.170446 1.49303 0.154194 2.25932 0.83562 2.51486L4.37312 3.85617L8.59228 20.5905C8.7546 21.1653 9.27395 21.5805 9.89036 21.5805H24.8844C25.6308 21.5805 26.2151 21.0058 26.2151 20.2711C26.2151 19.5366 25.631 18.9616 24.8844 18.9616H10.9289L10.6043 17.6843L24.9492 16.5346C25.7606 16.5349 26.4099 15.8641 26.4099 15.0978H26.4097Z" fill="white"/>
</svg>
